# Wavefront OBJ file automatically generated by Tiled2Unity

# Vertices (Count = 176)
v 0 -0.32 0
v -0.32 -0.32 0
v -0.32 0 0
v 0 0 0
v -0.64 -0.32 0
v -0.64 0 0
v -0.96 -0.32 0
v -0.96 0 0
v -1.28 -0.32 0
v -1.28 0 0
v -1.6 -0.32 0
v -1.6 0 0
v -1.92 -0.32 0
v -1.92 0 0
v -2.24 -0.32 0
v -2.24 0 0
v -2.56 -0.32 0
v -2.56 0 0
v -2.88 -0.32 0
v -2.88 0 0
v -3.2 -0.32 0
v -3.2 0 0
v -3.52 -0.32 0
v -3.52 0 0
v -3.84 -0.32 0
v -3.84 0 0
v -4.16 -0.32 0
v -4.16 0 0
v -4.48 -0.32 0
v -4.48 0 0
v -4.8 -0.32 0
v -4.8 0 0
v 0 -0.64 0
v -0.32 -0.64 0
v -0.64 -0.64 0
v -0.96 -0.64 0
v -1.28 -0.64 0
v -1.6 -0.64 0
v -1.92 -0.64 0
v -2.24 -0.64 0
v -2.56 -0.64 0
v -2.88 -0.64 0
v -3.2 -0.64 0
v -3.52 -0.64 0
v -3.84 -0.64 0
v -4.16 -0.64 0
v -4.48 -0.64 0
v -4.8 -0.64 0
v 0 -0.96 0
v -0.32 -0.96 0
v -0.64 -0.96 0
v -0.96 -0.96 0
v -1.28 -0.96 0
v -1.6 -0.96 0
v -1.92 -0.96 0
v -2.24 -0.96 0
v -2.56 -0.96 0
v -2.88 -0.96 0
v -3.2 -0.96 0
v -3.52 -0.96 0
v -3.84 -0.96 0
v -4.16 -0.96 0
v -4.48 -0.96 0
v -4.8 -0.96 0
v 0 -1.28 0
v -0.32 -1.28 0
v -0.64 -1.28 0
v -0.96 -1.28 0
v -1.28 -1.28 0
v -1.6 -1.28 0
v -1.92 -1.28 0
v -2.24 -1.28 0
v -2.56 -1.28 0
v -2.88 -1.28 0
v -3.2 -1.28 0
v -3.52 -1.28 0
v -3.84 -1.28 0
v -4.16 -1.28 0
v -4.48 -1.28 0
v -4.8 -1.28 0
v 0 -1.6 0
v -0.32 -1.6 0
v -0.64 -1.6 0
v -0.96 -1.6 0
v -1.28 -1.6 0
v -1.6 -1.6 0
v -1.92 -1.6 0
v -2.24 -1.6 0
v -2.56 -1.6 0
v -2.88 -1.6 0
v -3.2 -1.6 0
v -3.52 -1.6 0
v -3.84 -1.6 0
v -4.16 -1.6 0
v -4.48 -1.6 0
v -4.8 -1.6 0
v 0 -1.92 0
v -0.32 -1.92 0
v -0.64 -1.92 0
v -0.96 -1.92 0
v -1.28 -1.92 0
v -1.6 -1.92 0
v -1.92 -1.92 0
v -2.24 -1.92 0
v -2.56 -1.92 0
v -2.88 -1.92 0
v -3.2 -1.92 0
v -3.52 -1.92 0
v -3.84 -1.92 0
v -4.16 -1.92 0
v -4.48 -1.92 0
v -4.8 -1.92 0
v 0 -2.24 0
v -0.32 -2.24 0
v -0.64 -2.24 0
v -0.96 -2.24 0
v -1.28 -2.24 0
v -1.6 -2.24 0
v -1.92 -2.24 0
v -2.24 -2.24 0
v -2.56 -2.24 0
v -2.88 -2.24 0
v -3.2 -2.24 0
v -3.52 -2.24 0
v -3.84 -2.24 0
v -4.16 -2.24 0
v -4.48 -2.24 0
v -4.8 -2.24 0
v 0 -2.56 0
v -0.32 -2.56 0
v -0.64 -2.56 0
v -0.96 -2.56 0
v -1.28 -2.56 0
v -1.6 -2.56 0
v -1.92 -2.56 0
v -2.24 -2.56 0
v -2.56 -2.56 0
v -2.88 -2.56 0
v -3.2 -2.56 0
v -3.52 -2.56 0
v -3.84 -2.56 0
v -4.16 -2.56 0
v -4.48 -2.56 0
v -4.8 -2.56 0
v 0 -2.88 0
v -0.32 -2.88 0
v -0.64 -2.88 0
v -0.96 -2.88 0
v -1.28 -2.88 0
v -1.6 -2.88 0
v -1.92 -2.88 0
v -2.24 -2.88 0
v -2.56 -2.88 0
v -2.88 -2.88 0
v -3.2 -2.88 0
v -3.52 -2.88 0
v -3.84 -2.88 0
v -4.16 -2.88 0
v -4.48 -2.88 0
v -4.8 -2.88 0
v 0 -3.2 0
v -0.32 -3.2 0
v -0.64 -3.2 0
v -0.96 -3.2 0
v -1.28 -3.2 0
v -1.6 -3.2 0
v -1.92 -3.2 0
v -2.24 -3.2 0
v -2.56 -3.2 0
v -2.88 -3.2 0
v -3.2 -3.2 0
v -3.52 -3.2 0
v -3.84 -3.2 0
v -4.16 -3.2 0
v -4.48 -3.2 0
v -4.8 -3.2 0

# Texture cooridinates (Count = 172)
vt 0.2667888 0.6667888
vt 0.3332113 0.6667888
vt 0.3332113 0.8332112
vt 0.2667888 0.8332112
vt 0.2001221 0.6667888
vt 0.2665446 0.6667888
vt 0.2665446 0.8332112
vt 0.2001221 0.8332112
vt 0.3334554 0.8334554
vt 0.3998779 0.8334554
vt 0.3998779 0.9998779
vt 0.3334554 0.9998779
vt 0.4667887 0.1667887
vt 0.5332113 0.1667887
vt 0.5332113 0.3332113
vt 0.4667887 0.3332113
vt 0.4667887 0.0001220703
vt 0.5332113 0.0001220703
vt 0.5332113 0.1665446
vt 0.4667887 0.1665446
vt 0.3334554 0.5001221
vt 0.3998779 0.5001221
vt 0.3998779 0.6665446
vt 0.3334554 0.6665446
vt 0.4001221 0.5001221
vt 0.4665446 0.5001221
vt 0.4665446 0.6665446
vt 0.4001221 0.6665446
vt 0.0001220703 0.8334554
vt 0.0665446 0.8334554
vt 0.0665446 0.9998779
vt 0.0001220703 0.9998779
vt 0.06678874 0.8334554
vt 0.1332113 0.8334554
vt 0.1332113 0.9998779
vt 0.06678874 0.9998779
vt 0.1334554 0.8334554
vt 0.1998779 0.8334554
vt 0.1998779 0.9998779
vt 0.1334554 0.9998779
vt 0.0001220703 0.6667888
vt 0.0665446 0.6667888
vt 0.0665446 0.8332112
vt 0.0001220703 0.8332112
vt 0.1334554 0.6667888
vt 0.1998779 0.6667888
vt 0.1998779 0.8332112
vt 0.1334554 0.8332112
vt 0.4667887 0.8334554
vt 0.5332113 0.8334554
vt 0.5332113 0.9998779
vt 0.4667887 0.9998779
vt 0.5334554 0.8334554
vt 0.599878 0.8334554
vt 0.599878 0.9998779
vt 0.5334554 0.9998779
vt 0.8667887 0.8334554
vt 0.9332113 0.8334554
vt 0.9332113 0.9998779
vt 0.8667887 0.9998779
vt 0.9334554 0.8334554
vt 0.9998779 0.8334554
vt 0.9998779 0.9998779
vt 0.9334554 0.9998779
vt 0.4667887 0.6667888
vt 0.5332113 0.6667888
vt 0.5332113 0.8332112
vt 0.4667887 0.8332112
vt 0.5334554 0.6667888
vt 0.599878 0.6667888
vt 0.599878 0.8332112
vt 0.5334554 0.8332112
vt 0.0001220703 0.3334554
vt 0.0665446 0.3334554
vt 0.0665446 0.4998779
vt 0.0001220703 0.4998779
vt 0.8667887 0.6667888
vt 0.9332113 0.6667888
vt 0.9332113 0.8332112
vt 0.8667887 0.8332112
vt 0.9334554 0.6667888
vt 0.9998779 0.6667888
vt 0.9998779 0.8332112
vt 0.9334554 0.8332112
vt 0.4667887 0.5001221
vt 0.5332113 0.5001221
vt 0.5332113 0.6665446
vt 0.4667887 0.6665446
vt 0.5334554 0.5001221
vt 0.599878 0.5001221
vt 0.599878 0.6665446
vt 0.5334554 0.6665446
vt 0.8667887 0.5001221
vt 0.9332113 0.5001221
vt 0.9332113 0.6665446
vt 0.8667887 0.6665446
vt 0.9334554 0.5001221
vt 0.9998779 0.5001221
vt 0.9998779 0.6665446
vt 0.9334554 0.6665446
vt 0.6001221 0.5001221
vt 0.6665446 0.5001221
vt 0.6665446 0.6665446
vt 0.6001221 0.6665446
vt 0.6667888 0.5001221
vt 0.7332113 0.5001221
vt 0.7332113 0.6665446
vt 0.6667888 0.6665446
vt 0.8001221 0.5001221
vt 0.8665446 0.5001221
vt 0.8665446 0.6665446
vt 0.8001221 0.6665446
vt 0.0001220703 0.5001221
vt 0.0665446 0.5001221
vt 0.0665446 0.6665446
vt 0.0001220703 0.6665446
vt 0.06678874 0.5001221
vt 0.1332113 0.5001221
vt 0.1332113 0.6665446
vt 0.06678874 0.6665446
vt 0.1334554 0.5001221
vt 0.1998779 0.5001221
vt 0.1998779 0.6665446
vt 0.1334554 0.6665446
vt 0.6001221 0.8334554
vt 0.6665446 0.8334554
vt 0.6665446 0.9998779
vt 0.6001221 0.9998779
vt 0.8001221 0.8334554
vt 0.8665446 0.8334554
vt 0.8665446 0.9998779
vt 0.8001221 0.9998779
vt 0.6001221 0.6667888
vt 0.6665446 0.6667888
vt 0.6665446 0.8332112
vt 0.6001221 0.8332112
vt 0.6667888 0.6667888
vt 0.7332113 0.6667888
vt 0.7332113 0.8332112
vt 0.6667888 0.8332112
vt 0.0001220703 0.1667887
vt 0.0665446 0.1667887
vt 0.0665446 0.3332113
vt 0.0001220703 0.3332113
vt 0.06678874 0.1667887
vt 0.1332113 0.1667887
vt 0.1332113 0.3332113
vt 0.06678874 0.3332113
vt 0.1334554 0.1667887
vt 0.1998779 0.1667887
vt 0.1998779 0.3332113
vt 0.1334554 0.3332113
vt 0.2001221 0.1667887
vt 0.2665446 0.1667887
vt 0.2665446 0.3332113
vt 0.2001221 0.3332113
vt 0.7334554 0.3334554
vt 0.7998779 0.3334554
vt 0.7998779 0.4998779
vt 0.7334554 0.4998779
vt 0.6001221 0.3334554
vt 0.6665446 0.3334554
vt 0.6665446 0.4998779
vt 0.6001221 0.4998779
vt 0.6667888 0.3334554
vt 0.7332113 0.3334554
vt 0.7332113 0.4998779
vt 0.6667888 0.4998779
vt 0.8001221 0.3334554
vt 0.8665446 0.3334554
vt 0.8665446 0.4998779
vt 0.8001221 0.4998779

# Normal
vn 0 0 -1

# Groups (Count = 4)

g mesh_0001
f 1/1/1 2/2/1 3/3/1 4/4/1
f 2/1/1 5/2/1 6/3/1 3/4/1
f 5/1/1 7/2/1 8/3/1 6/4/1
f 7/1/1 9/2/1 10/3/1 8/4/1
f 9/1/1 11/2/1 12/3/1 10/4/1
f 11/1/1 13/2/1 14/3/1 12/4/1
f 13/1/1 15/2/1 16/3/1 14/4/1
f 15/1/1 17/2/1 18/3/1 16/4/1
f 17/1/1 19/2/1 20/3/1 18/4/1
f 19/1/1 21/2/1 22/3/1 20/4/1
f 21/1/1 23/2/1 24/3/1 22/4/1
f 23/1/1 25/2/1 26/3/1 24/4/1
f 25/1/1 27/2/1 28/3/1 26/4/1
f 27/1/1 29/2/1 30/3/1 28/4/1
f 29/1/1 31/2/1 32/3/1 30/4/1
f 33/5/1 34/6/1 2/7/1 1/8/1
f 34/5/1 35/6/1 5/7/1 2/8/1
f 35/5/1 36/6/1 7/7/1 5/8/1
f 36/5/1 37/6/1 9/7/1 7/8/1
f 37/5/1 38/6/1 11/7/1 9/8/1
f 38/5/1 39/6/1 13/7/1 11/8/1
f 39/5/1 40/6/1 15/7/1 13/8/1
f 40/5/1 41/6/1 17/7/1 15/8/1
f 41/5/1 42/6/1 19/7/1 17/8/1
f 42/5/1 43/6/1 21/7/1 19/8/1
f 43/5/1 44/6/1 23/7/1 21/8/1
f 44/5/1 45/6/1 25/7/1 23/8/1
f 45/5/1 46/6/1 27/7/1 25/8/1
f 46/5/1 47/6/1 29/7/1 27/8/1
f 47/5/1 48/6/1 31/7/1 29/8/1
f 49/5/1 50/6/1 34/7/1 33/8/1
f 50/5/1 51/6/1 35/7/1 34/8/1
f 51/5/1 52/6/1 36/7/1 35/8/1
f 52/5/1 53/6/1 37/7/1 36/8/1
f 53/9/1 54/10/1 38/11/1 37/12/1
f 54/9/1 55/10/1 39/11/1 38/12/1
f 55/9/1 56/10/1 40/11/1 39/12/1
f 56/13/1 57/14/1 41/15/1 40/16/1
f 57/5/1 58/6/1 42/7/1 41/8/1
f 58/13/1 59/14/1 43/15/1 42/16/1
f 59/5/1 60/6/1 44/7/1 43/8/1
f 60/5/1 61/6/1 45/7/1 44/8/1
f 61/5/1 62/6/1 46/7/1 45/8/1
f 62/5/1 63/6/1 47/7/1 46/8/1
f 63/5/1 64/6/1 48/7/1 47/8/1
f 65/5/1 66/6/1 50/7/1 49/8/1
f 66/5/1 67/6/1 51/7/1 50/8/1
f 67/5/1 68/6/1 52/7/1 51/8/1
f 68/5/1 69/6/1 53/7/1 52/8/1
f 69/9/1 70/10/1 54/11/1 53/12/1
f 70/9/1 71/10/1 55/11/1 54/12/1
f 71/9/1 72/10/1 56/11/1 55/12/1
f 72/17/1 73/18/1 57/19/1 56/20/1
f 73/5/1 74/6/1 58/7/1 57/8/1
f 74/17/1 75/18/1 59/19/1 58/20/1
f 75/5/1 76/6/1 60/7/1 59/8/1
f 76/5/1 77/6/1 61/7/1 60/8/1
f 77/5/1 78/6/1 62/7/1 61/8/1
f 78/5/1 79/6/1 63/7/1 62/8/1
f 79/5/1 80/6/1 64/7/1 63/8/1
f 81/1/1 82/2/1 66/3/1 65/4/1
f 82/1/1 83/2/1 67/3/1 66/4/1
f 83/1/1 84/2/1 68/3/1 67/4/1
f 84/1/1 85/2/1 69/3/1 68/4/1
f 85/1/1 86/2/1 70/3/1 69/4/1
f 86/1/1 87/2/1 71/3/1 70/4/1
f 87/1/1 88/2/1 72/3/1 71/4/1
f 88/1/1 89/2/1 73/3/1 72/4/1
f 89/1/1 90/2/1 74/3/1 73/4/1
f 90/1/1 91/2/1 75/3/1 74/4/1
f 91/1/1 92/2/1 76/3/1 75/4/1
f 92/1/1 93/2/1 77/3/1 76/4/1
f 93/1/1 94/2/1 78/3/1 77/4/1
f 94/1/1 95/2/1 79/3/1 78/4/1
f 95/1/1 96/2/1 80/3/1 79/4/1
f 97/1/1 98/2/1 82/3/1 81/4/1
f 98/1/1 99/2/1 83/3/1 82/4/1
f 99/1/1 100/2/1 84/3/1 83/4/1
f 100/1/1 101/2/1 85/3/1 84/4/1
f 101/1/1 102/2/1 86/3/1 85/4/1
f 102/1/1 103/2/1 87/3/1 86/4/1
f 103/1/1 104/2/1 88/3/1 87/4/1
f 104/1/1 105/2/1 89/3/1 88/4/1
f 105/1/1 106/2/1 90/3/1 89/4/1
f 106/1/1 107/2/1 91/3/1 90/4/1
f 107/1/1 108/2/1 92/3/1 91/4/1
f 108/1/1 109/2/1 93/3/1 92/4/1
f 109/1/1 110/2/1 94/3/1 93/4/1
f 110/1/1 111/2/1 95/3/1 94/4/1
f 111/1/1 112/2/1 96/3/1 95/4/1
f 113/1/1 114/2/1 98/3/1 97/4/1
f 114/1/1 115/2/1 99/3/1 98/4/1
f 115/1/1 116/2/1 100/3/1 99/4/1
f 116/1/1 117/2/1 101/3/1 100/4/1
f 117/1/1 118/2/1 102/3/1 101/4/1
f 118/1/1 119/2/1 103/3/1 102/4/1
f 119/1/1 120/2/1 104/3/1 103/4/1
f 120/1/1 121/2/1 105/3/1 104/4/1
f 121/1/1 122/2/1 106/3/1 105/4/1
f 122/1/1 123/2/1 107/3/1 106/4/1
f 123/1/1 124/2/1 108/3/1 107/4/1
f 124/1/1 125/2/1 109/3/1 108/4/1
f 125/1/1 126/2/1 110/3/1 109/4/1
f 126/1/1 127/2/1 111/3/1 110/4/1
f 127/1/1 128/2/1 112/3/1 111/4/1
f 129/1/1 130/2/1 114/3/1 113/4/1
f 130/1/1 131/2/1 115/3/1 114/4/1
f 131/1/1 132/2/1 116/3/1 115/4/1
f 132/1/1 133/2/1 117/3/1 116/4/1
f 133/1/1 134/2/1 118/3/1 117/4/1
f 134/1/1 135/2/1 119/3/1 118/4/1
f 135/1/1 136/2/1 120/3/1 119/4/1
f 136/1/1 137/2/1 121/3/1 120/4/1
f 137/1/1 138/2/1 122/3/1 121/4/1
f 138/1/1 139/2/1 123/3/1 122/4/1
f 139/1/1 140/2/1 124/3/1 123/4/1
f 140/1/1 141/2/1 125/3/1 124/4/1
f 141/1/1 142/2/1 126/3/1 125/4/1
f 142/1/1 143/2/1 127/3/1 126/4/1
f 143/1/1 144/2/1 128/3/1 127/4/1
f 145/1/1 146/2/1 130/3/1 129/4/1
f 146/1/1 147/2/1 131/3/1 130/4/1
f 147/1/1 148/2/1 132/3/1 131/4/1
f 148/1/1 149/2/1 133/3/1 132/4/1
f 149/1/1 150/2/1 134/3/1 133/4/1
f 150/1/1 151/2/1 135/3/1 134/4/1
f 151/1/1 152/2/1 136/3/1 135/4/1
f 152/1/1 153/2/1 137/3/1 136/4/1
f 153/1/1 154/2/1 138/3/1 137/4/1
f 154/1/1 155/2/1 139/3/1 138/4/1
f 155/1/1 156/2/1 140/3/1 139/4/1
f 156/1/1 157/2/1 141/3/1 140/4/1
f 157/1/1 158/2/1 142/3/1 141/4/1
f 158/1/1 159/2/1 143/3/1 142/4/1
f 159/1/1 160/2/1 144/3/1 143/4/1
f 161/1/1 162/2/1 146/3/1 145/4/1
f 162/1/1 163/2/1 147/3/1 146/4/1
f 163/1/1 164/2/1 148/3/1 147/4/1
f 164/21/1 165/22/1 149/23/1 148/24/1
f 165/25/1 166/26/1 150/27/1 149/28/1
f 166/1/1 167/2/1 151/3/1 150/4/1
f 167/1/1 168/2/1 152/3/1 151/4/1
f 168/1/1 169/2/1 153/3/1 152/4/1
f 169/1/1 170/2/1 154/3/1 153/4/1
f 170/1/1 171/2/1 155/3/1 154/4/1
f 171/1/1 172/2/1 156/3/1 155/4/1
f 172/1/1 173/2/1 157/3/1 156/4/1
f 173/1/1 174/2/1 158/3/1 157/4/1
f 174/1/1 175/2/1 159/3/1 158/4/1
f 175/1/1 176/2/1 160/3/1 159/4/1

g mesh_0002
f 1/29/1 2/30/1 3/31/1 4/32/1
f 2/33/1 5/34/1 6/35/1 3/36/1
f 5/33/1 7/34/1 8/35/1 6/36/1
f 7/33/1 9/34/1 10/35/1 8/36/1
f 9/33/1 11/34/1 12/35/1 10/36/1
f 11/33/1 13/34/1 14/35/1 12/36/1
f 13/33/1 15/34/1 16/35/1 14/36/1
f 15/33/1 17/34/1 18/35/1 16/36/1
f 17/33/1 19/34/1 20/35/1 18/36/1
f 19/33/1 21/34/1 22/35/1 20/36/1
f 21/33/1 23/34/1 24/35/1 22/36/1
f 23/33/1 25/34/1 26/35/1 24/36/1
f 25/33/1 27/34/1 28/35/1 26/36/1
f 27/33/1 29/34/1 30/35/1 28/36/1
f 29/37/1 31/38/1 32/39/1 30/40/1
f 33/41/1 34/42/1 2/43/1 1/44/1
f 47/45/1 48/46/1 31/47/1 29/48/1
f 49/41/1 50/42/1 34/43/1 33/44/1
f 50/49/1 51/50/1 35/51/1 34/52/1
f 51/53/1 52/54/1 36/55/1 35/56/1
f 61/57/1 62/58/1 46/59/1 45/60/1
f 62/61/1 63/62/1 47/63/1 46/64/1
f 63/45/1 64/46/1 48/47/1 47/48/1
f 65/41/1 66/42/1 50/43/1 49/44/1
f 66/65/1 67/66/1 51/67/1 50/68/1
f 67/69/1 68/70/1 52/71/1 51/72/1
f 73/73/1 74/74/1 58/75/1 57/76/1
f 77/77/1 78/78/1 62/79/1 61/80/1
f 78/81/1 79/82/1 63/83/1 62/84/1
f 79/45/1 80/46/1 64/47/1 63/48/1
f 81/41/1 82/42/1 66/43/1 65/44/1
f 82/85/1 83/86/1 67/87/1 66/88/1
f 83/89/1 84/90/1 68/91/1 67/92/1
f 93/93/1 94/94/1 78/95/1 77/96/1
f 94/97/1 95/98/1 79/99/1 78/100/1
f 95/45/1 96/46/1 80/47/1 79/48/1
f 97/41/1 98/42/1 82/43/1 81/44/1
f 100/101/1 101/102/1 85/103/1 84/104/1
f 101/105/1 102/106/1 86/107/1 85/108/1
f 102/105/1 103/106/1 87/107/1 86/108/1
f 103/105/1 104/106/1 88/107/1 87/108/1
f 104/105/1 105/106/1 89/107/1 88/108/1
f 105/105/1 106/106/1 90/107/1 89/108/1
f 106/105/1 107/106/1 91/107/1 90/108/1
f 107/105/1 108/106/1 92/107/1 91/108/1
f 108/109/1 109/110/1 93/111/1 92/112/1
f 111/45/1 112/46/1 96/47/1 95/48/1
f 113/41/1 114/42/1 98/43/1 97/44/1
f 127/45/1 128/46/1 112/47/1 111/48/1
f 129/41/1 130/42/1 114/43/1 113/44/1
f 143/45/1 144/46/1 128/47/1 127/48/1
f 145/41/1 146/42/1 130/43/1 129/44/1
f 159/45/1 160/46/1 144/47/1 143/48/1
f 161/113/1 162/114/1 146/115/1 145/116/1
f 162/117/1 163/118/1 147/119/1 146/120/1
f 163/117/1 164/118/1 148/119/1 147/120/1
f 164/117/1 165/118/1 149/119/1 148/120/1
f 165/117/1 166/118/1 150/119/1 149/120/1
f 166/117/1 167/118/1 151/119/1 150/120/1
f 167/117/1 168/118/1 152/119/1 151/120/1
f 168/117/1 169/118/1 153/119/1 152/120/1
f 169/117/1 170/118/1 154/119/1 153/120/1
f 170/117/1 171/118/1 155/119/1 154/120/1
f 171/117/1 172/118/1 156/119/1 155/120/1
f 172/117/1 173/118/1 157/119/1 156/120/1
f 173/117/1 174/118/1 158/119/1 157/120/1
f 174/117/1 175/118/1 159/119/1 158/120/1
f 175/121/1 176/122/1 160/123/1 159/124/1

g mesh_0003
f 68/125/1 69/126/1 53/127/1 52/128/1
f 76/129/1 77/130/1 61/131/1 60/132/1
f 84/133/1 85/134/1 69/135/1 68/136/1
f 85/137/1 86/138/1 70/139/1 69/140/1
f 86/137/1 87/138/1 71/139/1 70/140/1
f 87/137/1 88/138/1 72/139/1 71/140/1
f 88/137/1 89/138/1 73/139/1 72/140/1
f 89/141/1 90/142/1 74/143/1 73/144/1
f 90/145/1 91/146/1 75/147/1 74/148/1
f 91/149/1 92/150/1 76/151/1 75/152/1
f 92/153/1 93/154/1 77/155/1 76/156/1

g mesh_0004
f 84/157/1 85/158/1 69/159/1 68/160/1
f 85/161/1 86/162/1 70/163/1 69/164/1
f 86/165/1 87/166/1 71/167/1 70/168/1
f 87/169/1 88/170/1 72/171/1 71/172/1
f 88/157/1 89/158/1 73/159/1 72/160/1

